<mxfile host="app.diagrams.net" modified="2024-02-21T20:04:26.899Z" agent="Mozilla/5.0 (Macintosh; Intel Mac OS X 10_15_7) AppleWebKit/605.1.15 (KHTML, like Gecko) Version/17.3 Safari/605.1.15" etag="vRkgnlSO-Oza9SVsRmEu" version="23.1.5" type="github">
  <diagram name="Page-1" id="32KlS0a9MHU7f0sSySpJ">
    <mxGraphModel dx="954" dy="563" grid="1" gridSize="10" guides="1" tooltips="1" connect="1" arrows="1" fold="1" page="1" pageScale="1" pageWidth="827" pageHeight="1169" math="0" shadow="0">
      <root>
        <mxCell id="0" />
        <mxCell id="1" parent="0" />
        <mxCell id="6SDKsTsUNLwxf9SL66wB-1" value="QC Reads&lt;br&gt;(Trimmomatic)" style="rounded=1;whiteSpace=wrap;html=1;" vertex="1" parent="1">
          <mxGeometry x="70" y="160" width="120" height="60" as="geometry" />
        </mxCell>
      </root>
    </mxGraphModel>
  </diagram>
</mxfile>
